<svg xmlns="http://www.w3.org/2000/svg" viewBox="0 0 32 32">
  <rect x="2" y="2" width="28" height="28" rx="7" fill="#0a0a0a" stroke="#00d4ff" stroke-width="1.5"/>
  <g fill="none" stroke="#f5f5f5" stroke-width="1.75" stroke-linecap="round" stroke-linejoin="round">
    <path d="M11 21V13a2 2 0 0 1 2-2h0a2 2 0 0 1 2 2v4"/>
    <path d="M15 17a2 2 0 0 1 2-2h0a2 2 0 0 1 2 2v4"/>
    <path d="M19 17a2 2 0 0 1 2-2h0a2 2 0 0 1 2 2v4"/>
  </g>
  <circle cx="24.5" cy="8" r="1.8" fill="#00d4ff"/>
</svg>
